<?xml version="1.0" encoding="UTF-8" standalone="no"?>
<svg width="80px" height="80px" viewBox="0 0 80 80" version="1.1" xmlns="http://www.w3.org/2000/svg" xmlns:xlink="http://www.w3.org/1999/xlink" xmlns:sketch="http://www.bohemiancoding.com/sketch/ns">
    <!-- Generator: Sketch 3.4 (15575) - http://www.bohemiancoding.com/sketch -->
    <title>icon-certificate</title>
    <desc>Created with Sketch.</desc>
    <defs></defs>
    <g id="New-competitions-page" stroke="none" stroke-width="1" fill="none" fill-rule="evenodd" sketch:type="MSPage">
        <g id="Desktop-HD" sketch:type="MSArtboardGroup" transform="translate(-777.000000, -2601.000000)">
            <g id="forums-and-safety" sketch:type="MSLayerGroup" transform="translate(0.000000, 2502.000000)">
                <g id="icon-certificate" transform="translate(777.000000, 99.000000)" sketch:type="MSShapeGroup">
                    <path d="M39.9477165,0.157480315 C61.9804724,0.157480315 79.8418898,18.0182677 79.8418898,40.0516535 C79.8418898,62.0856693 61.9804724,79.9470866 39.9477165,79.9470866 C17.9137008,79.9470866 0.0522834646,62.0856693 0.0522834646,40.0516535 C0.0522834646,18.0182677 17.9137008,0.157480315 39.9477165,0.157480315 Z" id="Fill-1" fill="#AC44BE"></path>
                    <path d="M61.2384252,66.8982677 L19.8847244,66.8982677 C18.3395276,66.8982677 17.0885039,65.6466142 17.0885039,64.1020472 L17.0885039,16.2223622 C17.0885039,14.6784252 18.3395276,13.4267717 19.8847244,13.4267717 L61.2384252,13.4267717 C62.7823622,13.4267717 64.0333858,14.6784252 64.0333858,16.2223622 L64.0333858,64.1020472 C64.0333858,65.6466142 62.7823622,66.8982677 61.2384252,66.8982677 Z" id="Fill-2" fill="#6F2B7C"></path>
                    <path d="M61.9804724,62.2009449 C61.9804724,63.6214173 60.8270866,64.7748031 59.4066142,64.7748031 L21.7171654,64.7748031 C20.2948031,64.7748031 19.1433071,63.6214173 19.1433071,62.2009449 L19.1433071,18.1228346 C19.1433071,16.7023622 20.2948031,15.5502362 21.7171654,15.5502362 L59.4066142,15.5502362 C60.8270866,15.5502362 61.9804724,16.7023622 61.9804724,18.1228346 L61.9804724,62.2009449" id="Fill-3" fill="#F5F5F5"></path>
                    <path d="M59.6377953,28.384252 L57.6214173,25.6497638 L59.6377953,24.4270866 C59.6377953,24.4270866 55.5552756,22.8535433 50.8705512,21.4853543 L50.8705512,25.4488189 C55.5508661,26.816378 59.6377953,28.384252 59.6377953,28.384252" id="Fill-4" fill="#F9CF14"></path>
                    <path d="M54.4976378,24.6985827 L50.8705512,21.4853543 L50.8705512,25.4488189 L54.4976378,24.6985827" id="Fill-5" fill="#D9B306"></path>
                    <path d="M21.4658268,28.384252 L23.4822047,25.6497638 L21.4658268,24.4270866 C21.4658268,24.4270866 25.5483465,22.8535433 30.2330709,21.4853543 L30.2330709,25.4488189 C25.5514961,26.816378 21.4658268,28.384252 21.4658268,28.384252" id="Fill-6" fill="#F9CF14"></path>
                    <path d="M26.6047244,24.6985827 L30.2330709,21.4853543 L30.2330709,25.4488189 L26.6047244,24.6985827" id="Fill-7" fill="#D9B306"></path>
                    <path d="M26.5669291,20.7275591 C26.5669291,20.7275591 34.2859843,18.7496063 40.5713386,18.7496063 C46.856063,18.7496063 54.4976378,20.7275591 54.4976378,20.7275591 L54.4976378,24.6853543 C54.4976378,24.6853543 46.7968504,22.7061417 40.5713386,22.7061417 C34.3451969,22.7061417 26.5669291,24.6853543 26.5669291,24.6853543 L26.5669291,20.7275591" id="Fill-8" fill="#F9CF14"></path>
                    <path d="M55.1729134,35.2944882 L25.5565354,35.2944882 C25.1250394,35.2944882 24.7754331,35.6459843 24.7754331,36.0762205 C24.7754331,36.5096063 25.1250394,36.8598425 25.5565354,36.8598425 L55.1729134,36.8598425 C55.6037795,36.8598425 55.9552756,36.5096063 55.9552756,36.0762205 C55.9552756,35.6459843 55.6037795,35.2944882 55.1729134,35.2944882" id="Fill-9" fill="#D5D5D5"></path>
                    <path d="M51.1559055,31.0708661 L29.5748031,31.0708661 C29.0223622,31.0708661 28.5744882,31.52 28.5744882,32.0711811 C28.5744882,32.6248819 29.0223622,33.072126 29.5748031,33.072126 L51.1559055,33.072126 C51.7070866,33.072126 52.1549606,32.6248819 52.1549606,32.0711811 C52.1549606,31.52 51.7070866,31.0708661 51.1559055,31.0708661" id="Fill-10" fill="#D5D5D5"></path>
                    <path d="M55.1729134,38.7294488 L25.5565354,38.7294488 C25.1250394,38.7294488 24.7754331,39.080315 24.7754331,39.5124409 C24.7754331,39.943937 25.1250394,40.2941732 25.5565354,40.2941732 L55.1729134,40.2941732 C55.6037795,40.2941732 55.9552756,39.943937 55.9552756,39.5124409 C55.9552756,39.080315 55.6037795,38.7294488 55.1729134,38.7294488" id="Fill-11" fill="#D5D5D5"></path>
                    <path d="M55.1729134,42.1637795 L25.5565354,42.1637795 C25.1250394,42.1637795 24.7754331,42.5146457 24.7754331,42.9467717 C24.7754331,43.3782677 25.1250394,43.7285039 25.5565354,43.7285039 L55.1729134,43.7285039 C55.6037795,43.7285039 55.9552756,43.3782677 55.9552756,42.9467717 C55.9552756,42.5146457 55.6037795,42.1637795 55.1729134,42.1637795" id="Fill-12" fill="#D5D5D5"></path>
                    <path d="M55.1729134,45.6869291 L25.5565354,45.6869291 C25.1250394,45.6869291 24.7754331,46.0384252 24.7754331,46.4699213 C24.7754331,46.9020472 25.1250394,47.2522835 25.5565354,47.2522835 L55.1729134,47.2522835 C55.6037795,47.2522835 55.9552756,46.9020472 55.9552756,46.4699213 C55.9552756,46.0384252 55.6037795,45.6869291 55.1729134,45.6869291" id="Fill-13" fill="#D5D5D5"></path>
                    <path d="M33.5735433,58.047874 L25.5565354,58.047874 C25.1250394,58.047874 24.7754331,58.3974803 24.7754331,58.8302362 C24.7754331,59.2623622 25.1250394,59.6132283 25.5565354,59.6132283 L33.5735433,59.6132283 C34.0037795,59.6132283 34.3546457,59.2623622 34.3546457,58.8302362 C34.3546457,58.3974803 34.0037795,58.047874 33.5735433,58.047874" id="Fill-14" fill="#D5D5D5"></path>
                    <path d="M55.3448819,58.047874 L47.3285039,58.047874 C46.896378,58.047874 46.5474016,58.3974803 46.5474016,58.8302362 C46.5474016,59.2623622 46.896378,59.6132283 47.3285039,59.6132283 L55.3448819,59.6132283 C55.7744882,59.6132283 56.1266142,59.2623622 56.1266142,58.8302362 C56.1266142,58.3974803 55.7744882,58.047874 55.3448819,58.047874" id="Fill-15" fill="#D5D5D5"></path>
                    <path d="M44.767874,56.4415748 L45.448189,55.2623622 L44.7987402,54.1379528 L44.8170079,52.839685 L43.6472441,52.1423622 L42.9656693,50.9612598 L41.6667717,50.9612598 L40.551811,50.2973228 L39.3618898,50.9612598 L37.9987402,50.9612598 L37.3505512,52.0856693 L36.2173228,52.72 L36.1977953,54.0825197 L35.5162205,55.2623622 L36.1656693,56.3874016 L36.1486614,57.6856693 L37.3184252,58.3829921 L37.9987402,59.5634646 L39.2982677,59.5634646 L40.4138583,60.2280315 L41.6037795,59.5634646 L42.9656693,59.5634646 L43.6151181,58.4390551 L44.7483465,57.8053543 L44.767874,56.4415748" id="Fill-16" fill="#D9B306"></path>
                    <path d="M44.1776378,56.280315 L44.7647244,55.2623622 L44.2047244,54.2929134 L44.2204724,53.1741732 L43.2119685,52.5725984 L42.623622,51.5552756 L41.5029921,51.5552756 L40.5417323,50.9814173 L39.5168504,51.5552756 L38.3420472,51.5552756 L37.7820472,52.5240945 L36.8044094,53.0702362 L36.7880315,54.2450394 L36.2015748,55.2623622 L36.7609449,56.2324409 L36.7451969,57.351811 L37.7555906,57.9527559 L38.3420472,58.9707087 L39.4620472,58.9707087 L40.423937,59.543937 L41.4500787,58.9707087 L42.623622,58.9707087 L43.183622,58.0012598 L44.16,57.4551181 L44.1776378,56.280315" id="Fill-17" fill="#F9CF14"></path>
                </g>
            </g>
        </g>
    </g>
</svg>