<?xml version="1.0" encoding="UTF-8" standalone="no"?>
<svg width="80px" height="80px" viewBox="0 0 80 80" version="1.1" xmlns="http://www.w3.org/2000/svg" xmlns:xlink="http://www.w3.org/1999/xlink" xmlns:sketch="http://www.bohemiancoding.com/sketch/ns">
    <!-- Generator: Sketch 3.4 (15575) - http://www.bohemiancoding.com/sketch -->
    <title>icon/icon-leaderboard</title>
    <desc>Created with Sketch.</desc>
    <defs></defs>
    <g id="New-competitions-page" stroke="none" stroke-width="1" fill="none" fill-rule="evenodd" sketch:type="MSPage">
        <g id="Desktop-HD" sketch:type="MSArtboardGroup" transform="translate(-174.000000, -2792.000000)">
            <g id="forums-and-safety" sketch:type="MSLayerGroup" transform="translate(0.000000, 2502.000000)">
                <g id="icon/icon-leaderboard" transform="translate(174.000000, 290.000000)" sketch:type="MSShapeGroup">
                    <path d="M40.0006316,0 C62.0914847,0 80,17.9072521 80,40 C80,62.0908531 62.0914847,80 40.0006316,80 C17.9085153,80 0,62.0908531 0,40 C0,17.9072521 17.9085153,0 40.0006316,0 Z" id="Fill-1" fill="#FAD841"></path>
                    <path d="M66.0031496,57.2699213 C66.0031496,58.0629921 65.36,58.7067717 64.5662992,58.7067717 L43.1710236,58.7067717 C42.3773228,58.7067717 41.7341732,58.0629921 41.7341732,57.2699213 L41.7341732,45.4733858 C41.7341732,44.679685 42.3773228,44.0365354 43.1710236,44.0365354 L64.5662992,44.0365354 C65.36,44.0365354 66.0031496,44.679685 66.0031496,45.4733858 L66.0031496,57.2699213" id="Fill-2" fill="#F5F5F5"></path>
                    <path d="M60.0497638,50.4302362 C60.3143307,50.2154331 60.4459843,49.9080315 60.4459843,49.5061417 C60.4459843,49.2006299 60.3414173,48.9373228 60.1310236,48.7168504 C59.9193701,48.496378 59.6365354,48.3861417 59.2781102,48.3861417 C59.0362205,48.3861417 58.8365354,48.4201575 58.6790551,48.4875591 C58.5228346,48.5555906 58.3987402,48.6444094 58.3067717,48.7559055 C58.2154331,48.8674016 58.1291339,49.0097638 58.047874,49.1848819 C57.9672441,49.3593701 57.8916535,49.5244094 57.824252,49.6793701 C57.7845669,49.7631496 57.7133858,49.8280315 57.6100787,49.8759055 C57.5067717,49.9231496 57.3877165,49.9477165 57.2522835,49.9477165 C57.0935433,49.9477165 56.9467717,49.8828346 56.8138583,49.7537008 C56.6809449,49.6245669 56.6148031,49.4525984 56.6148031,49.2384252 C56.6148031,49.031811 56.6777953,48.8144882 56.8018898,48.5858268 C56.9272441,48.3571654 57.1105512,48.1398425 57.3505512,47.9332283 C57.591811,47.7266142 57.8903937,47.560315 58.2475591,47.4355906 C58.6053543,47.3108661 59.0040945,47.247874 59.4456693,47.247874 C59.8305512,47.247874 60.1826772,47.3001575 60.5001575,47.4059843 C60.8176378,47.5111811 61.0941732,47.663622 61.327874,47.8620472 C61.5628346,48.0598425 61.7392126,48.2910236 61.8582677,48.5530709 C61.9779528,48.815748 62.0377953,49.0973228 62.0377953,49.3990551 C62.0377953,49.7965354 61.9508661,50.1366929 61.7782677,50.4214173 C61.6062992,50.7055118 61.3574803,50.9826772 61.0368504,51.2529134 C61.3467717,51.4192126 61.6075591,51.6100787 61.8204724,51.8248819 C62.0333858,52.039685 62.1927559,52.2765354 62.2998425,52.5366929 C62.4069291,52.7968504 62.4611024,53.0777953 62.4611024,53.3801575 C62.4611024,53.7417323 62.3886614,54.0913386 62.2437795,54.4289764 C62.0982677,54.7666142 61.8840945,55.0670866 61.6025197,55.3316535 C61.3209449,55.5955906 60.9858268,55.8022047 60.5984252,55.9514961 C60.2110236,56.1001575 59.7826772,56.1744882 59.3140157,56.1744882 C58.8377953,56.1744882 58.4100787,56.0900787 58.0333858,55.9187402 C57.6554331,55.7480315 57.344252,55.5344882 57.1004724,55.2774803 C56.856063,55.0217323 56.6714961,54.7565354 56.5461417,54.4825197 C56.4201575,54.2085039 56.3590551,53.9817323 56.3590551,53.8034646 C56.3590551,53.5729134 56.4327559,53.3870866 56.5814173,53.2459843 C56.7307087,53.1048819 56.9159055,53.0343307 57.1388976,53.0343307 C57.2510236,53.0343307 57.3581102,53.0677165 57.4614173,53.1325984 C57.5647244,53.1987402 57.632126,53.2768504 57.6629921,53.368189 C57.8696063,53.92 58.0913386,54.3307087 58.3275591,54.5984252 C58.5650394,54.8667717 58.8970079,55.0009449 59.3266142,55.0009449 C59.5722835,55.0009449 59.8097638,54.9398425 60.0390551,54.8195276 C60.2664567,54.6985827 60.456063,54.5184252 60.6047244,54.279685 C60.7533858,54.0422047 60.8270866,53.7656693 60.8270866,53.4513386 C60.8270866,52.9870866 60.7004724,52.6223622 60.4459843,52.3584252 C60.1927559,52.0944882 59.8381102,51.9622047 59.3851969,51.9622047 C59.3064567,51.9622047 59.183622,51.9697638 59.016063,51.9855118 C58.8491339,52.0012598 58.7420472,52.0094488 58.6941732,52.0094488 C58.4762205,52.0094488 58.3067717,51.9546457 58.1883465,51.8450394 C58.0692913,51.736063 58.0088189,51.584252 58.0088189,51.3902362 C58.0088189,51.1993701 58.0812598,51.0450394 58.224252,50.927874 C58.3666142,50.8107087 58.5795276,50.752126 58.8611024,50.752126 L59.1061417,50.752126 C59.4714961,50.752126 59.7864567,50.6444094 60.0497638,50.4302362 Z" id="Fill-3" fill="#AD8E05"></path>
                    <path d="M31.8500787,57.2699213 C31.8500787,58.0629921 31.2062992,58.7067717 30.4125984,58.7067717 L17.344252,58.7067717 C16.5505512,58.7067717 15.9074016,58.0629921 15.9074016,57.2699213 L15.9074016,40.616063 C15.9074016,39.8223622 16.5505512,39.1792126 17.344252,39.1792126 L30.4125984,39.1792126 C31.2062992,39.1792126 31.8500787,39.8223622 31.8500787,40.616063 L31.8500787,57.2699213" id="Fill-4" fill="#F5F5F5"></path>
                    <path d="M22.9348031,51.496063 L26.0453543,51.496063 C26.3552756,51.496063 26.5914961,51.5590551 26.7540157,51.6862992 C26.9171654,51.8135433 26.9984252,51.9867717 26.9984252,52.2053543 C26.9984252,52.4 26.9335433,52.5644094 26.8044094,52.6998425 C26.6765354,52.8352756 26.4793701,52.9020472 26.2173228,52.9020472 L21.8311811,52.9020472 C21.5338583,52.9020472 21.3007874,52.8195276 21.1351181,52.6544882 C20.9675591,52.4900787 20.8837795,52.2966929 20.8837795,52.0743307 C20.8837795,51.9307087 20.9379528,51.7411024 21.0450394,51.5048819 C21.152126,51.2680315 21.2692913,51.0822047 21.3971654,50.9474016 C21.9250394,50.3993701 22.4018898,49.9294488 22.8264567,49.5382677 C23.2522835,49.1470866 23.5565354,48.8900787 23.7385827,48.7666142 C24.064252,48.536063 24.336378,48.304252 24.551811,48.0724409 C24.7691339,47.84 24.9329134,47.6012598 25.0475591,47.3568504 C25.160315,47.1130709 25.2170079,46.8737008 25.2170079,46.6393701 C25.2170079,46.3848819 25.1559055,46.1574803 25.0349606,45.9571654 C24.9133858,45.7562205 24.7483465,45.6 24.5404724,45.4885039 C24.3313386,45.3776378 24.103937,45.3228346 23.8576378,45.3228346 C23.3373228,45.3228346 22.9285039,45.5508661 22.6299213,46.0075591 C22.5902362,46.0667717 22.5240945,46.2299213 22.4302362,46.495748 C22.3370079,46.7622047 22.2324409,46.9669291 22.1140157,47.1099213 C21.9974803,47.2529134 21.8248819,47.3240945 21.6,47.3240945 C21.4009449,47.3240945 21.2359055,47.2585827 21.104252,47.1275591 C20.9738583,46.9965354 20.9083465,46.8188976 20.9083465,46.5908661 C20.9083465,46.3174803 20.9700787,46.0314961 21.0929134,45.7329134 C21.216378,45.4349606 21.399685,45.1653543 21.6440945,44.9228346 C21.887874,44.680315 22.1977953,44.4850394 22.5732283,44.335748 C22.9499213,44.1870866 23.3889764,44.112126 23.8935433,44.112126 C24.5014173,44.112126 25.0204724,44.2072441 25.448189,44.3981102 C25.7266142,44.5253543 25.9710236,44.6998425 26.1814173,44.9228346 C26.391811,45.1458268 26.5568504,45.4028346 26.6740157,45.6944882 C26.7905512,45.9861417 26.8497638,46.2897638 26.8497638,46.6034646 C26.8497638,47.096063 26.728189,47.543937 26.4831496,47.9470866 C26.2381102,48.3502362 25.9899213,48.6658268 25.7348031,48.8951181 C25.480315,49.1231496 25.0544882,49.4815748 24.4566929,49.9703937 C23.8588976,50.4592126 23.4494488,50.8390551 23.2264567,51.1086614 C23.1307087,51.215748 23.0330709,51.3448819 22.9348031,51.496063" id="Fill-5" fill="#AD8E05"></path>
                    <path d="M30.8333858,58.7067717 L30.8333858,29.0954331 C30.8333858,28.3017323 31.4771654,27.6585827 32.2702362,27.6585827 L50.328189,27.6585827 C51.1212598,27.6585827 51.7650394,28.3017323 51.7650394,29.0954331 L51.7650394,58.7067717 L30.8333858,58.7067717 Z" id="Fill-6" fill="#F5F5F5"></path>
                    <path d="M47.1697638,16.0050394 C46.415748,16.7804724 46.0195276,16.9833071 45.6573228,16.9833071 C45.2970079,16.9833071 44.8245669,16.9858268 44.8245669,16.6538583 L44.8245669,13.8935433 C44.8245669,13.5609449 45.4116535,13.5710236 45.6573228,13.5710236 L47.6743307,12.8491339 C47.92,12.8491339 48.1209449,13.1187402 48.1209449,13.4513386 C48.1209449,13.4513386 48.3407874,14.7993701 47.1697638,16.0050394 L47.1697638,16.0050394 Z M49.4985827,12.7792126 C49.4985827,12.2437795 49.176063,11.8103937 48.7804724,11.8103937 L45.4462992,12.5329134 C45.0500787,12.5329134 44.1051969,12.9669291 44.1051969,13.5011024 L44.1051969,17.0538583 C44.1051969,17.5880315 44.8667717,18.0220472 45.4462992,18.0220472 C46.0264567,18.0220472 46.6651969,17.6944882 47.8771654,16.447874 C49.7618898,14.5089764 49.4985827,12.7792126 49.4985827,12.7792126 L49.4985827,12.7792126 Z" id="Fill-7" fill="#AD8E05"></path>
                    <path d="M34.1581102,13.4513386 C34.1581102,13.1187402 34.3571654,12.8491339 34.6047244,12.8491339 L36.6198425,13.5710236 C36.8655118,13.5710236 37.4525984,13.5609449 37.4525984,13.8935433 L37.4525984,16.6538583 C37.4525984,16.9858268 36.9801575,16.9833071 36.6198425,16.9833071 C36.2595276,16.9833071 35.8620472,16.7804724 35.1086614,16.0050394 C33.936378,14.7993701 34.1581102,13.4513386 34.1581102,13.4513386 L34.1581102,13.4513386 Z M34.4,16.447874 C35.6119685,17.6944882 36.2519685,18.0220472 36.8314961,18.0220472 C37.4110236,18.0220472 38.1725984,17.5880315 38.1725984,17.0538583 L38.1725984,13.5011024 C38.1725984,12.9669291 37.2289764,12.5329134 36.8314961,12.5329134 L33.4973228,11.8103937 C33.1011024,11.8103937 32.7798425,12.2437795 32.7798425,12.7792126 C32.7798425,12.7792126 32.5152756,14.5089764 34.4,16.447874 L34.4,16.447874 Z" id="Fill-8" fill="#AD8E05"></path>
                    <path d="M45.688189,13.2611024 C45.688189,12.4869291 45.0607874,11.8582677 44.2859843,11.8582677 L37.9741732,11.8582677 C37.1993701,11.8582677 36.5719685,12.4869291 36.5719685,13.2611024 L36.5719685,17.3914961 C36.5719685,17.4229921 36.5744882,17.4544882 36.576378,17.4859843 C36.5732283,17.5508661 36.5719685,17.616378 36.5719685,17.6825197 C36.5719685,20.296063 38.6129134,22.4151181 41.1300787,22.4151181 C43.6472441,22.4151181 45.688189,20.296063 45.688189,17.6825197 C45.688189,17.616378 45.6869291,17.5508661 45.6831496,17.4859843 C45.6856693,17.4544882 45.688189,17.4229921 45.688189,17.3914961 L45.688189,13.2611024" id="Fill-9" fill="#D9B306"></path>
                    <path d="M42.4737008,25.9533858 C42.4737008,26.679685 41.8853543,27.2686614 41.159685,27.2686614 C40.4327559,27.2686614 39.8444094,26.679685 39.8444094,25.9533858 L39.0066142,21.7650394 C39.0066142,21.0387402 40.4327559,20.4497638 41.159685,20.4497638 C41.8853543,20.4497638 43.3127559,21.0387402 43.3127559,21.7650394 L42.4737008,25.9533858" id="Fill-10" fill="#D9B306"></path>
                    <path d="M44.2859843,26.8012598 C44.2859843,25.6510236 42.8737008,24.9889764 41.1300787,24.9889764 C39.3864567,24.9889764 37.9741732,25.6510236 37.9741732,26.8012598 L37.9741732,26.8598425 L44.2859843,26.8598425 L44.2859843,26.8012598" id="Fill-11" fill="#D9B306"></path>
                    <path d="M38.9448819,27.6390551 L43.3152756,27.6390551 C43.8513386,27.6390551 44.2859843,27.3524409 44.2859843,26.9373228 L44.2859843,26.8598425 L37.9741732,26.8598425 L37.9741732,26.9373228 C37.9741732,27.3133858 38.4088189,27.6390551 38.9448819,27.6390551" id="Fill-12" fill="#AD8E05"></path>
                    <path d="M43.7606299,22.4951181 C43.7606299,23.1414173 42.5952756,23.664252 41.159685,23.664252 C39.7228346,23.664252 38.5587402,23.1414173 38.5587402,22.4951181 C38.5587402,21.8500787 39.7228346,21.3266142 41.159685,21.3266142 C42.5952756,21.3266142 43.7606299,21.8500787 43.7606299,22.4951181" id="Fill-13" fill="#D9B306"></path>
                    <path d="M43.351811,15.9848819 C43.351811,16.1007874 43.2585827,16.1952756 43.1414173,16.1952756 L39.0941732,16.1952756 C38.9782677,16.1952756 38.8837795,16.1007874 38.8837795,15.9848819 L38.8837795,14.0592126 C38.8837795,13.943937 38.9782677,13.8500787 39.0941732,13.8500787 L43.1414173,13.8500787 C43.2585827,13.8500787 43.351811,13.943937 43.351811,14.0592126 L43.351811,15.9848819" id="Fill-14" fill="#D5D5D5"></path>
                    <path d="M43.1552756,15.8198425 C43.1552756,15.9262992 43.0702362,16.0119685 42.9631496,16.0119685 L39.2724409,16.0119685 C39.1666142,16.0119685 39.080315,15.9262992 39.080315,15.8198425 L39.080315,14.2595276 C39.080315,14.1549606 39.1666142,14.0692913 39.2724409,14.0692913 L42.9631496,14.0692913 C43.0702362,14.0692913 43.1552756,14.1549606 43.1552756,14.2595276 L43.1552756,15.8198425" id="Fill-15" fill="#F5F5F5"></path>
                    <path d="M42.6116535,14.5253543 C42.6116535,14.6179528 42.536063,14.6929134 42.4440945,14.6929134 L39.7077165,14.6929134 C39.615748,14.6929134 39.5407874,14.6179528 39.5407874,14.5253543 C39.5407874,14.4333858 39.615748,14.3584252 39.7077165,14.3584252 L42.4440945,14.3584252 C42.536063,14.3584252 42.6116535,14.4333858 42.6116535,14.5253543" id="Fill-16" fill="#D5D5D5"></path>
                    <path d="M42.6116535,15.5685039 C42.6116535,15.6611024 42.536063,15.736063 42.4440945,15.736063 L39.7077165,15.736063 C39.615748,15.736063 39.5407874,15.6611024 39.5407874,15.5685039 C39.5407874,15.4765354 39.615748,15.4015748 39.7077165,15.4015748 L42.4440945,15.4015748 C42.536063,15.4015748 42.6116535,15.4765354 42.6116535,15.5685039" id="Fill-17" fill="#D5D5D5"></path>
                    <path d="M42.6116535,15.0374803 C42.6116535,15.1294488 42.536063,15.2044094 42.4440945,15.2044094 L39.7077165,15.2044094 C39.615748,15.2044094 39.5407874,15.1294488 39.5407874,15.0374803 C39.5407874,14.9448819 39.615748,14.8699213 39.7077165,14.8699213 L42.4440945,14.8699213 C42.536063,14.8699213 42.6116535,14.9448819 42.6116535,15.0374803" id="Fill-18" fill="#D5D5D5"></path>
                    <path d="M40.5184252,37.8368504 L40.5184252,32.4138583 C39.5086614,33.1880315 38.8296063,33.5754331 38.48,33.5754331 C38.3124409,33.5754331 38.1650394,33.5092913 38.0359055,33.375748 C37.9067717,33.2428346 37.8425197,33.0891339 37.8425197,32.9140157 C37.8425197,32.7111811 37.9055118,32.5625197 38.0333858,32.4674016 C38.16,32.3716535 38.384252,32.2488189 38.7061417,32.0976378 C39.1874016,31.8708661 39.5710236,31.6327559 39.8588976,31.3826772 C40.1467717,31.1319685 40.4031496,30.8522835 40.6255118,30.5423622 C40.8485039,30.2324409 40.992126,30.0415748 41.0601575,29.9703937 C41.1275591,29.8985827 41.2541732,29.8626772 41.4412598,29.8626772 C41.6516535,29.8626772 41.8217323,29.9445669 41.9483465,30.1070866 C42.0749606,30.2702362 42.1392126,30.4951181 42.1392126,30.7811024 L42.1392126,37.6044094 C42.1392126,38.4025197 41.8670866,38.8012598 41.3234646,38.8012598 C41.079685,38.8012598 40.8850394,38.72 40.7388976,38.5581102 C40.5908661,38.3949606 40.5184252,38.1543307 40.5184252,37.8368504" id="Fill-19" fill="#AD8E05"></path>
                </g>
            </g>
        </g>
    </g>
</svg>