<?xml version="1.0" encoding="UTF-8" standalone="no"?>
<svg width="80px" height="80px" viewBox="0 0 80 80" version="1.1" xmlns="http://www.w3.org/2000/svg" xmlns:xlink="http://www.w3.org/1999/xlink" xmlns:sketch="http://www.bohemiancoding.com/sketch/ns">
    <!-- Generator: Sketch 3.4 (15575) - http://www.bohemiancoding.com/sketch -->
    <title>icons/icon-teacher</title>
    <desc>Created with Sketch.</desc>
    <defs></defs>
    <g id="New-teachers-page" stroke="none" stroke-width="1" fill="none" fill-rule="evenodd" sketch:type="MSPage">
        <g id="Desktop-HD" sketch:type="MSArtboardGroup" transform="translate(-209.000000, -1075.000000)">
            <g id="features" sketch:type="MSLayerGroup" transform="translate(150.000000, 586.000000)">
                <g id="dashboard-features" transform="translate(0.000000, 416.000000)" sketch:type="MSShapeGroup">
                    <g id="icons/icon-teacher" transform="translate(59.000000, 73.000000)">
                        <path d="M0.0529133858,40.0522835 C0.0529133858,18.0176378 17.9137008,0.156850394 39.9464567,0.156850394 C61.9804724,0.156850394 79.8418898,18.0176378 79.8418898,40.0522835 C79.8418898,62.0850394 61.9804724,79.9470866 39.9464567,79.9470866 C17.9137008,79.9470866 0.0529133858,62.0850394 0.0529133858,40.0522835" id="Fill-1" fill="#54C552"></path>
                        <path d="M18.9316535,45.3700787 C18.9316535,45.3700787 23.2138583,55.8544882 39.8255118,55.8538583 C56.4359055,55.8538583 60.8233071,45.3707087 60.8233071,45.3707087 L58.3124409,35.9943307 L21.4431496,35.9943307 L18.9316535,45.3700787 Z" id="Fill-2" fill="#222222"></path>
                        <path d="M21.4431496,35.9943307 L18.9316535,45.3700787 C18.9316535,45.3700787 23.2138583,55.8544882 39.8255118,55.8538583 L39.6995276,35.9943307 L21.4431496,35.9943307" id="Fill-3" fill="#333333"></path>
                        <path d="M21.4431496,35.9943307 L20.6658268,38.703622 L37.6629921,43.6674016 C38.9644094,44.064252 41.0733858,44.064252 42.3741732,43.6674016 L59.0891339,38.7911811 L58.3124409,35.9943307 L21.4431496,35.9943307" id="Fill-4" fill="#000000"></path>
                        <path d="M42.3741732,42.6966929 C41.0733858,43.0935433 38.9644094,43.0935433 37.6629921,42.6966929 L8.87937008,33.8885039 C7.57858268,33.4897638 7.57858268,32.8459843 8.87937008,32.447874 L37.6629921,23.640315 C38.9631496,23.2415748 41.0727559,23.2415748 42.3729134,23.640315 L71.1571654,32.447874 C72.4579528,32.8459843 72.4579528,33.4897638 71.1571654,33.8891339 L42.3741732,42.6966929" id="Fill-5" fill="#333333"></path>
                        <path d="M56.304252,38.4125984 C56.0888189,38.4125984 55.9143307,38.5883465 55.9143307,38.8031496 L55.9143307,54.624252 C55.9143307,54.8390551 56.0888189,55.0141732 56.304252,55.0141732 C56.520315,55.0141732 56.6948031,54.8390551 56.6948031,54.624252 L56.6948031,38.8031496 C56.6948031,38.5883465 56.520315,38.4125984 56.304252,38.4125984" id="Fill-6" fill="#AD8E05"></path>
                        <path d="M56.4088189,38.4258268 L40.0749606,33.3266142 C39.8702362,33.2617323 39.6503937,33.3770079 39.5855118,33.5823622 C39.5212598,33.7883465 39.6359055,34.0075591 39.8412598,34.071811 L56.1744882,39.1691339 C56.3804724,39.2352756 56.599685,39.12 56.663937,38.9152756 C56.7288189,38.7086614 56.6135433,38.4888189 56.4088189,38.4258268" id="Fill-7" fill="#AD8E05"></path>
                        <path d="M57.3644094,47.1546457 C57.3644094,47.8337008 56.8774803,48.3855118 56.2765354,48.3855118 C55.6762205,48.3855118 55.1892913,47.8337008 55.1892913,47.1546457 C55.1892913,46.4730709 55.6762205,45.9225197 56.2765354,45.9225197 C56.8774803,45.9225197 57.3644094,46.4730709 57.3644094,47.1546457" id="Fill-8" fill="#AD8E05"></path>
                        <path d="M55.9218898,48.1662992 C55.9218898,48.1662992 54.8453543,49.407874 54.8453543,50.1606299 C54.8453543,50.4730709 54.8340157,52.2198425 54.8258268,53.4922835 C54.8207874,54.2620472 54.2488189,54.8579528 54.2488189,54.8579528 C54.2488189,55.2919685 58.303622,55.2919685 58.303622,54.8579528 C58.303622,54.8579528 57.7310236,54.2790551 57.7253543,53.5275591 C57.7159055,52.2853543 57.7033071,50.5713386 57.7033071,50.2173228 C57.7033071,49.407874 56.6299213,48.1656693 56.6299213,48.1656693 L55.9218898,48.1662992" id="Fill-9" fill="#AD8E05"></path>
                        <path d="M42.1341732,33.7833071 C42.1341732,34.48 41.2201575,35.0462992 40.0925984,35.0462992 C38.9650394,35.0462992 38.0510236,34.48 38.0510236,33.7833071 C38.0510236,33.0859843 38.9650394,32.5190551 40.0925984,32.5190551 C41.2201575,32.5190551 42.1341732,33.0859843 42.1341732,33.7833071" id="Fill-10" fill="#222222"></path>
                    </g>
                </g>
            </g>
        </g>
    </g>
</svg>