<?xml version="1.0" encoding="UTF-8" standalone="no"?>
<svg width="80px" height="80px" viewBox="0 0 80 80" version="1.1" xmlns="http://www.w3.org/2000/svg" xmlns:xlink="http://www.w3.org/1999/xlink" xmlns:sketch="http://www.bohemiancoding.com/sketch/ns">
    <!-- Generator: Sketch 3.4 (15575) - http://www.bohemiancoding.com/sketch -->
    <title>icons/icon-dashboard copy</title>
    <desc>Created with Sketch.</desc>
    <defs></defs>
    <g id="New-teachers-page" stroke="none" stroke-width="1" fill="none" fill-rule="evenodd" sketch:type="MSPage">
        <g id="Desktop-HD" sketch:type="MSArtboardGroup" transform="translate(-1129.000000, -1059.000000)">
            <g id="features" sketch:type="MSLayerGroup" transform="translate(150.000000, 586.000000)">
                <g id="dashboard-features" transform="translate(0.000000, 416.000000)" sketch:type="MSShapeGroup">
                    <g id="icons/icon-dashboard-copy" transform="translate(979.000000, 57.000000)">
                        <path d="M0,40 C0,17.907601 17.9085153,0 39.9993684,0 C62.0908531,0 80,17.907601 80,40 C80,62.0905043 62.0908531,80 39.9993684,80 C17.9085153,80 0,62.0905043 0,40" id="Fill-1" fill="#FB4251"></path>
                        <path d="M45.2107087,63.616378 C43.9307087,59.8935433 43.2062992,58.9240945 40.7754331,58.9240945 C38.376063,58.9240945 37.5433071,60.1549606 36.3420472,63.616378 C32.2462992,64.0132283 29.3719685,64.944252 29.3719685,66.0277165 C29.3719685,67.4733858 34.4774803,68.6450394 40.7754331,68.6450394 C47.0733858,68.6450394 52.1788976,67.4733858 52.1788976,66.0277165 C52.1788976,64.944252 49.3051969,64.0138583 45.2107087,63.616378" id="Fill-2" fill="#333333"></path>
                        <path d="M69.6333858,56.840315 C69.6333858,58.7458268 68.0888189,60.2897638 66.1845669,60.2897638 C66.1845669,60.2897638 51.991811,62.2891339 40.0277165,62.2891339 C30.8674016,62.2891339 15.3026772,60.2897638 15.3026772,60.2897638 C13.3971654,60.2897638 11.8525984,58.7458268 11.8525984,56.840315 L11.8525984,22.7754331 C11.8525984,20.8705512 13.3971654,19.3266142 15.3026772,19.3266142 L66.1845669,19.3266142 C68.0888189,19.3266142 69.6333858,20.8705512 69.6333858,22.7754331 L69.6333858,56.840315" id="Fill-3" fill="#333333"></path>
                        <path d="M14.1833071,21.8166929 L67.1811024,21.8166929 L67.1811024,57.6623622 L14.1833071,57.6623622 L14.1833071,21.8166929 Z" id="Fill-4" fill="#FDA8AF"></path>
                        <path d="M32.7804724,40.56 C32.7804724,42.0844094 31.5445669,43.3209449 30.0195276,43.3209449 C28.4938583,43.3209449 27.2579528,42.0844094 27.2579528,40.56 C27.2579528,39.0349606 28.4938583,37.7984252 30.0195276,37.7984252 C31.5445669,37.7984252 32.7804724,39.0349606 32.7804724,40.56" id="Fill-5" fill="#F5F5F5"></path>
                        <path d="M46.704252,35.8595276 C46.704252,37.3845669 45.4677165,38.6211024 43.9426772,38.6211024 C42.4176378,38.6211024 41.1823622,37.3845669 41.1823622,35.8595276 C41.1823622,34.3344882 42.4176378,33.0979528 43.9426772,33.0979528 C45.4677165,33.0979528 46.704252,34.3344882 46.704252,35.8595276" id="Fill-6" fill="#FEF3F5"></path>
                        <path d="M60.4522835,29.632126 C60.4522835,31.1565354 59.2151181,32.3930709 57.6907087,32.3930709 C56.1656693,32.3930709 54.9297638,31.1565354 54.9297638,29.632126 C54.9297638,28.1070866 56.1656693,26.8705512 57.6907087,26.8705512 C59.2151181,26.8705512 60.4522835,28.1070866 60.4522835,29.632126" id="Fill-7" fill="#F5F5F5"></path>
                        <path d="M67.0551181,24.2645669 C64.6576378,23.6503937 62.8925984,25.528189 60.6570079,27.903622 C60.495748,28.0749606 60.3307087,28.2500787 60.1637795,28.4258268 C60.3426772,28.791811 60.4522835,29.1981102 60.4522835,29.632126 C60.4522835,31.1565354 59.2151181,32.3930709 57.6907087,32.3930709 C57.183622,32.3930709 56.7149606,32.2462992 56.3067717,32.008189 C53.9206299,33.8311811 50.9026772,35.3417323 46.7017323,35.7259843 L46.6916535,35.7272441 L46.704252,35.8595276 C46.704252,37.3845669 45.4677165,38.6211024 43.9426772,38.6211024 C42.7325984,38.6211024 41.7152756,37.8362205 41.3423622,36.7533858 C39.7713386,37.1262992 38.2116535,37.5307087 37.007874,37.8431496 L35.9376378,38.1190551 C34.6330709,38.4516535 33.4588976,38.7792126 32.3804724,39.1483465 C32.6286614,39.5622047 32.7804724,40.0409449 32.7804724,40.56 C32.7804724,42.0844094 31.5445669,43.3209449 30.0195276,43.3209449 C28.8925984,43.3209449 27.9275591,42.6437795 27.4979528,41.6768504 C25.5811024,43.1741732 23.8771654,45.320315 22.0025197,48.6935433 C20.6809449,51.0727559 19.2774803,52.2777953 17.831811,52.2777953 L17.7461417,52.2765354 C15.9420472,52.2179528 14.6620472,50.3067717 14.1833071,49.4645669 L14.1833071,57.6623622 L67.1811024,57.6623622 L67.1811024,24.3011024 L67.0551181,24.2645669" id="Fill-8" fill="#FC6470"></path>
                        <path d="M14.1770079,48.2412598 L14.1770079,49.4733858 C14.655748,50.3162205 15.9685039,52.2349606 17.7725984,52.2941732 L17.8576378,52.296063 C19.303937,52.296063 20.7067717,51.0903937 22.0283465,48.7111811 C26.143622,41.3064567 29.4349606,39.8028346 35.9640945,38.136063 L37.0337008,37.8607874 C39.7776378,37.1496063 44.3710236,35.959685 46.728189,35.7429921 C53.9388976,35.0840945 57.6787402,31.1130709 60.6828346,27.9212598 C62.919685,25.5458268 64.7766929,23.6705512 67.1741732,24.2840945 L67.1697638,23.7354331 C64.4573228,23.0418898 62.6381102,25.0267717 60.2752756,27.5370079 C57.3354331,30.6595276 53.6762205,34.5455118 46.6771654,35.184252 C44.2746457,35.4047244 39.6541732,36.6015748 36.8932283,37.3177953 L35.8261417,37.5930709 C29.1338583,39.3007874 25.76,40.8428346 21.5388976,48.4390551 C20.3011024,50.6658268 19.0393701,51.7788976 17.792126,51.7341732 C15.8677165,51.671811 14.5222047,48.88 14.5096063,48.8516535 L14.1770079,48.2412598" id="Fill-9" fill="#F5F5F5"></path>
                        <path d="M14.1833071,49.4645669 L14.1833071,49.4645669 L14.1801575,49.4595276 L14.1833071,49.4645669" id="Fill-10" fill="#FEF9FA"></path>
                    </g>
                </g>
            </g>
        </g>
    </g>
</svg>