<?xml version="1.0" encoding="UTF-8" standalone="no"?>
<svg width="80px" height="80px" viewBox="0 0 80 80" version="1.1" xmlns="http://www.w3.org/2000/svg" xmlns:xlink="http://www.w3.org/1999/xlink" xmlns:sketch="http://www.bohemiancoding.com/sketch/ns">
    <!-- Generator: Sketch 3.4 (15575) - http://www.bohemiancoding.com/sketch -->
    <title>icon-forums</title>
    <desc>Created with Sketch.</desc>
    <defs></defs>
    <g id="New-competitions-page" stroke="none" stroke-width="1" fill="none" fill-rule="evenodd" sketch:type="MSPage">
        <g id="Desktop-HD" sketch:type="MSArtboardGroup" transform="translate(-174.000000, -2601.000000)">
            <g id="forums-and-safety" sketch:type="MSLayerGroup" transform="translate(0.000000, 2502.000000)">
                <g id="icon-forums" transform="translate(174.000000, 99.000000)" sketch:type="MSShapeGroup">
                    <path d="M39.9464567,0.156850394 C61.9804724,0.156850394 79.8418898,18.0176378 79.8418898,40.0522835 C79.8418898,62.0850394 61.9804724,79.9470866 39.9464567,79.9470866 C17.9137008,79.9470866 0.0522834646,62.0850394 0.0522834646,40.0522835 C0.0522834646,18.0176378 17.9137008,0.156850394 39.9464567,0.156850394 Z" id="Fill-1" fill="#FF8C44"></path>
                    <path d="M57.4267717,45.8872441 C57.4267717,48.3237795 55.4494488,50.2985827 53.0148031,50.2985827 L19.5590551,50.2985827 C17.1256693,50.2985827 15.1483465,48.3237795 15.1483465,45.8872441 L15.1483465,26.4025197 C15.1483465,23.9666142 17.1256693,21.9911811 19.5590551,21.9911811 L53.0148031,21.9911811 C55.4494488,21.9911811 57.4267717,23.9666142 57.4267717,26.4025197 L57.4267717,45.8872441" id="Fill-2" fill="#E85900"></path>
                    <path d="M20.5530709,56.2362205 C20.2072441,56.5826772 19.6453543,56.5826772 19.2995276,56.2362205 L19.2453543,49.0129134 L28.9524409,49.0129134 C29.2982677,49.3581102 29.2982677,49.9193701 28.9524409,50.2651969 L20.5530709,56.2362205" id="Fill-3" fill="#E85900"></path>
                    <path d="M30.1247244,36.5165354 C30.1247244,38.0995276 28.840315,39.3826772 27.2579528,39.3826772 C25.6737008,39.3826772 24.3930709,38.0995276 24.3930709,36.5165354 C24.3930709,34.9335433 25.6737008,33.6503937 27.2579528,33.6503937 C28.840315,33.6503937 30.1247244,34.9335433 30.1247244,36.5165354" id="Fill-4" fill="#B3C4BB"></path>
                    <path d="M39.1048819,36.5165354 C39.1048819,38.0995276 37.8217323,39.3826772 36.2381102,39.3826772 C34.6551181,39.3826772 33.3719685,38.0995276 33.3719685,36.5165354 C33.3719685,34.9335433 34.6551181,33.6503937 36.2381102,33.6503937 C37.8217323,33.6503937 39.1048819,34.9335433 39.1048819,36.5165354" id="Fill-5" fill="#B3C4BB"></path>
                    <path d="M47.8929134,36.5165354 C47.8929134,38.0995276 46.6085039,39.3826772 45.0267717,39.3826772 C43.4431496,39.3826772 42.1612598,38.0995276 42.1612598,36.5165354 C42.1612598,34.9335433 43.4431496,33.6503937 45.0267717,33.6503937 C46.6085039,33.6503937 47.8929134,34.9335433 47.8929134,36.5165354" id="Fill-6" fill="#B3C4BB"></path>
                    <path d="M22.9190551,50.5385827 C22.9190551,52.9751181 24.8951181,54.9499213 27.3310236,54.9499213 L60.7867717,54.9499213 C63.2201575,54.9499213 65.1962205,52.9751181 65.1962205,50.5385827 L65.1962205,31.0538583 C65.1962205,28.6179528 63.2201575,26.6425197 60.7867717,26.6425197 L27.3310236,26.6425197 C24.8951181,26.6425197 22.9190551,28.6179528 22.9190551,31.0538583 L22.9190551,50.5385827" id="Fill-7" fill="#F5F5F5"></path>
                    <path d="M59.7927559,60.8875591 C60.1385827,61.2340157 60.6992126,61.2340157 61.0462992,60.8875591 L61.1004724,53.663622 L51.3933858,53.663622 C51.0475591,54.0100787 51.0475591,54.5713386 51.3933858,54.9165354 L59.7927559,60.8875591" id="Fill-8" fill="#F5F5F5"></path>
                    <path d="M50.2211024,41.167874 C50.2211024,42.7514961 51.504252,44.0340157 53.0872441,44.0340157 C54.672126,44.0340157 55.9527559,42.7514961 55.9527559,41.167874 C55.9527559,39.5855118 54.672126,38.3023622 53.0872441,38.3023622 C51.504252,38.3023622 50.2211024,39.5855118 50.2211024,41.167874" id="Fill-9" fill="#E85900"></path>
                    <path d="M41.2409449,41.167874 C41.2409449,42.7514961 42.5240945,44.0340157 44.1077165,44.0340157 C45.6907087,44.0340157 46.9725984,42.7514961 46.9725984,41.167874 C46.9725984,39.5855118 45.6907087,38.3023622 44.1077165,38.3023622 C42.5240945,38.3023622 41.2409449,39.5855118 41.2409449,41.167874" id="Fill-10" fill="#E85900"></path>
                    <path d="M32.4529134,41.167874 C32.4529134,42.7514961 33.7373228,44.0340157 35.3177953,44.0340157 C36.9026772,44.0340157 38.1845669,42.7514961 38.1845669,41.167874 C38.1845669,39.5855118 36.9026772,38.3023622 35.3177953,38.3023622 C33.7373228,38.3023622 32.4529134,39.5855118 32.4529134,41.167874" id="Fill-11" fill="#E85900"></path>
                </g>
            </g>
        </g>
    </g>
</svg>