<?xml version="1.0" encoding="UTF-8" standalone="no"?>
<svg width="80px" height="80px" viewBox="0 0 80 80" version="1.1" xmlns="http://www.w3.org/2000/svg" xmlns:xlink="http://www.w3.org/1999/xlink" xmlns:sketch="http://www.bohemiancoding.com/sketch/ns">
    <!-- Generator: Sketch 3.4 (15575) - http://www.bohemiancoding.com/sketch -->
    <title>icon-champion</title>
    <desc>Created with Sketch.</desc>
    <defs>
        <path id="path-1" d="M40,80 C62.0913911,80 80,62.0913911 80,40 C80,17.9086089 62.0913911,0 40,0 C17.9086089,0 0,17.9086089 0,40 C0,62.0913911 17.9086089,80 40,80 Z"></path>
    </defs>
    <g id="New-competitions-page" stroke="none" stroke-width="1" fill="none" fill-rule="evenodd" sketch:type="MSPage">
        <g id="Desktop-HD" sketch:type="MSArtboardGroup" transform="translate(-1118.000000, -3532.000000)">
            <g id="useful-links" sketch:type="MSLayerGroup" transform="translate(0.000000, 3384.000000)">
                <g id="button-icon-copy-3" transform="translate(1028.000000, 148.000000)">
                    <g id="icon-champion" transform="translate(90.000000, 0.000000)">
                        <mask id="mask-2" sketch:name="Oval 3" fill="white">
                            <use xlink:href="#path-1"></use>
                        </mask>
                        <use id="Oval-3" fill="#FAD841" sketch:type="MSShapeGroup" xlink:href="#path-1"></use>
                        <g id="Badges-15" mask="url(#mask-2)" sketch:type="MSShapeGroup">
                            <g transform="translate(12.000000, 16.155700)">
                                <path d="M48.5512983,13.9632908 C46.0358024,16.5435279 44.711926,17.2161511 43.5078664,17.2161511 C42.3038068,17.2161511 40.7252381,17.2265895 40.7252381,16.1214259 L40.7252381,6.94282768 C40.7252381,5.83635938 42.6868274,5.87158891 43.5078664,5.87158891 L50.2346248,3.46945665 C51.057628,3.46945665 51.7248041,4.36585255 51.7248041,5.47166846 C51.7248041,5.47166846 52.4613821,9.9543004 48.5512983,13.9632908 L48.5512983,13.9632908 Z M56.3236702,3.23655029 C56.3236702,1.45680645 55.249903,0.0143527729 53.9260267,0.0143527729 L42.8007515,2.41844223 C41.4762204,2.41844223 38.3262852,3.86024351 38.3262852,5.63737775 L38.3262852,17.451667 C38.3262852,19.2288013 40.8673158,20.671255 42.8007515,20.671255 C44.736806,20.671255 46.8679719,19.5830538 50.9142408,15.4364072 C57.2049449,8.98875022 56.3236702,3.23655029 56.3236702,3.23655029 L56.3236702,3.23655029 Z" id="Fill-2" fill="#AD8E05"></path>
                                <path d="M5.12658341,5.47166846 C5.12658341,4.36585255 5.79375946,3.46945665 6.61741743,3.46945665 L13.3422116,5.87158891 C14.1665243,5.87158891 16.1241851,5.83635938 16.1241851,6.94282768 L16.1241851,16.1214259 C16.1241851,17.2265895 14.5456165,17.2161511 13.3422116,17.2161511 C12.1401162,17.2161511 10.8155851,16.5435279 8.30008912,13.9632908 C4.39066007,9.9543004 5.12658341,5.47166846 5.12658341,5.47166846 L5.12658341,5.47166846 Z M5.93780139,15.4364072 C9.98210608,19.5830538 12.1145815,20.671255 14.050636,20.671255 C15.9853811,20.671255 18.5251023,19.2288013 18.5251023,17.451667 L18.5251023,5.63737775 C18.5251023,3.86024351 15.3751671,2.41844223 14.050636,2.41844223 L2.92405128,0.0143527729 C1.60213916,0.0143527729 0.52771727,1.45680645 0.52771727,3.23655029 C0.52771727,3.23655029 -0.354212212,8.98875022 5.93780139,15.4364072 L5.93780139,15.4364072 Z" id="Fill-3" fill="#AD8E05"></path>
                                <path d="M43.6100052,4.84014646 C43.6100052,2.26447612 41.5141951,0.173538072 38.9286424,0.173538072 L17.8631641,0.173538072 C15.2782661,0.173538072 13.182456,2.26447612 13.182456,4.84014646 L13.182456,18.5744453 C13.182456,18.6788291 13.1903128,18.7838653 13.1994791,18.8895539 C13.1890033,19.1048455 13.182456,19.3233991 13.182456,19.5419527 C13.182456,28.2338615 19.99433,35.2791158 28.3952485,35.2791158 C36.7981312,35.2791158 43.6100052,28.2338615 43.6100052,19.5419527 C43.6100052,19.3233991 43.6034579,19.1048455 43.5929821,18.8895539 C43.6008389,18.7838653 43.6100052,18.6788291 43.6100052,18.5744453 L43.6100052,4.84014646" id="Fill-4" fill="#D9B306"></path>
                                <path d="M32.8808453,47.0457799 C32.8808453,49.4616126 30.9159824,51.4194613 28.4934589,51.4194613 C26.0689713,51.4194613 24.1047631,49.4616126 24.1047631,47.0457799 L21.3083853,33.1190234 C21.3083853,30.7031908 26.0689713,28.7453421 28.4934589,28.7453421 C30.9159824,28.7453421 35.6791872,30.7031908 35.6791872,33.1190234 L32.8808453,47.0457799" id="Fill-5" fill="#D9B306"></path>
                                <path d="M38.9286424,49.8667522 C38.9286424,46.0410858 34.2132332,43.8398924 28.3952485,43.8398924 C22.579228,43.8398924 17.8631641,46.0410858 17.8631641,49.8667522 L17.8631641,50.0605146 L38.9286424,50.0605146 L38.9286424,49.8667522" id="Fill-6" fill="#D9B306"></path>
                                <path d="M21.1047624,52.6511901 L35.6870441,52.6511901 C37.4777472,52.6511901 38.9286424,51.6993403 38.9286424,50.3188645 L38.9286424,50.0605146 L17.8631641,50.0605146 L17.8631641,50.3188645 C17.8631641,51.5682082 19.314714,52.6511901 21.1047624,52.6511901" id="Fill-7" fill="#AD8E05"></path>
                                <path d="M37.1739497,35.5472517 C37.1739497,37.6949484 33.2874364,39.4335911 28.4934589,39.4335911 C23.7007909,39.4335911 19.8136229,37.6949484 19.8136229,35.5472517 C19.8136229,33.4015121 23.7007909,31.6609122 28.4934589,31.6609122 C33.2874364,31.6609122 37.1739497,33.4015121 37.1739497,35.5472517" id="Fill-8" fill="#D9B306"></path>
                                <path d="M35.8120987,13.8960937 C35.8120987,14.2829662 35.4984801,14.5961176 35.1108763,14.5961176 L21.5997429,14.5961176 C21.2134486,14.5961176 20.89983,14.2829662 20.89983,13.8960937 L20.89983,7.49345224 C20.89983,7.11049417 21.2134486,6.79734276 21.5997429,6.79734276 L35.1108763,6.79734276 C35.4984801,6.79734276 35.8120987,7.11049417 35.8120987,7.49345224 L35.8120987,13.8960937" id="Fill-9" fill="#D5D5D5"></path>
                                <path d="M35.1560531,13.3480788 C35.1560531,13.7016789 34.8705882,13.9861248 34.5144118,13.9861248 L22.1955527,13.9861248 C21.8426499,13.9861248 21.557185,13.7016789 21.557185,13.3480788 L21.557185,8.16020379 C21.557185,7.81247524 21.8426499,7.52607218 22.1955527,7.52607218 L34.5144118,7.52607218 C34.8705882,7.52607218 35.1560531,7.81247524 35.1560531,8.16020379 L35.1560531,13.3480788" id="Fill-10" fill="#F5F5F5"></path>
                                <path d="M33.3385058,9.04355172 C33.3385058,9.35083154 33.0883966,9.60004787 32.7800159,9.60004787 L23.6497215,9.60004787 C23.3413408,9.60004787 23.0899221,9.35083154 23.0899221,9.04355172 C23.0899221,8.7369243 23.3413408,8.48705557 23.6497215,8.48705557 L32.7800159,8.48705557 C33.0883966,8.48705557 33.3385058,8.7369243 33.3385058,9.04355172" id="Fill-11" fill="#D5D5D5"></path>
                                <path d="M33.3385058,12.5130084 C33.3385058,12.8202882 33.0883966,13.0701569 32.7800159,13.0701569 L23.6497215,13.0701569 C23.3413408,13.0701569 23.0899221,12.8202882 23.0899221,12.5130084 C23.0899221,12.2070333 23.3413408,11.9565122 23.6497215,11.9565122 L32.7800159,11.9565122 C33.0883966,11.9565122 33.3385058,12.2070333 33.3385058,12.5130084" id="Fill-12" fill="#D5D5D5"></path>
                                <path d="M33.3385058,10.7456601 C33.3385058,11.0529399 33.0883966,11.3028086 32.7800159,11.3028086 L23.6497215,11.3028086 C23.3413408,11.3028086 23.0899221,11.0529399 23.0899221,10.7456601 C23.0899221,10.4390327 23.3413408,10.189164 23.6497215,10.189164 L32.7800159,10.189164 C33.0883966,10.189164 33.3385058,10.4390327 33.3385058,10.7456601" id="Fill-13" fill="#D5D5D5"></path>
                            </g>
                        </g>
                    </g>
                </g>
            </g>
        </g>
    </g>
</svg>