<?xml version="1.0" encoding="UTF-8" standalone="no"?>
<svg width="80px" height="80px" viewBox="0 0 80 80" version="1.1" xmlns="http://www.w3.org/2000/svg" xmlns:xlink="http://www.w3.org/1999/xlink" xmlns:sketch="http://www.bohemiancoding.com/sketch/ns">
    <!-- Generator: Sketch 3.4 (15575) - http://www.bohemiancoding.com/sketch -->
    <title>icon/icon-competition</title>
    <desc>Created with Sketch.</desc>
    <defs>
        <path id="path-1" d="M39.9996842,0 C62.0909945,0 80,17.9072521 80,40 C80,62.0908531 62.0909945,80 39.9996842,80 C17.9090055,80 0,62.0908531 0,40 C0,17.9072521 17.9090055,0 39.9996842,0 Z"></path>
    </defs>
    <g id="New-competitions-page" stroke="none" stroke-width="1" fill="none" fill-rule="evenodd" sketch:type="MSPage">
        <g id="Desktop-HD" sketch:type="MSArtboardGroup" transform="translate(-826.000000, -3532.000000)">
            <g id="useful-links" sketch:type="MSLayerGroup" transform="translate(0.000000, 3384.000000)">
                <g id="button-icon-copy-2" transform="translate(736.000000, 148.000000)">
                    <g id="icon/icon-competition" transform="translate(90.000000, 0.000000)">
                        <mask id="mask-2" sketch:name="Mask" fill="white">
                            <use xlink:href="#path-1"></use>
                        </mask>
                        <use id="Mask" fill="#2891E0" sketch:type="MSShapeGroup" xlink:href="#path-1"></use>
                        <path d="M31.4057229,68.641237 L29.9041287,68.0950881 L49.3523273,14.5453772 L50.8539214,15.0915261 L31.4057229,68.641237" id="Fill-2" fill="#A3A4A0" sketch:type="MSShapeGroup" mask="url(#mask-2)"></path>
                        <path d="M63.2047068,41.041167 C63.2047068,54.5441626 52.2571331,65.4911056 38.7547682,65.4911056 C25.2511419,65.4911056 14.3048295,54.5441626 14.3048295,41.041167 C14.3048295,27.5381713 25.2511419,16.5918589 38.7547682,16.5918589 C52.2571331,16.5918589 63.2047068,27.5381713 63.2047068,41.041167" id="Fill-3" fill="#165F96" sketch:type="MSShapeGroup" mask="url(#mask-2)"></path>
                        <path d="M51.4120528,30.3143232 C51.4120528,30.3143232 46.1788616,31.3965305 44.3039185,30.391894 C44.3039185,30.391894 43.0539565,28.7698443 39.539936,30.1598122 C39.539936,30.1598122 33.3695886,33.8687056 33.2901258,37.5769684 C33.2901258,37.5769684 31.5722163,44.9171845 38.0560003,45.9205597 C38.0560003,45.9205597 44.8513287,43.6810969 45.7109141,46.307783 C45.7109141,46.307783 45.9448879,49.5525129 46.5698689,50.2474969 C46.5698689,50.2474969 47.5839652,51.7402619 47.5063944,52.6421013 C47.5063944,52.6421013 46.8038426,55.6547494 47.7409988,57.973675 C47.7409988,57.973675 48.3659798,59.9816867 48.2890397,60.6009918 C48.2890397,60.6009918 54.2241521,58.9007407 56.0978339,53.3377159 C56.0978339,53.3377159 57.1926543,49.4749421 57.2702251,48.469675 C57.2702251,48.469675 58.8317317,43.9894881 59.222739,42.5988896 C59.222739,42.5988896 60.6284733,38.4264633 58.2849521,38.9669363 C58.2849521,38.9669363 56.6452441,37.4224575 55.4741141,36.26331 C54.3023536,35.1041626 52.0376645,30.7015465 51.4120528,30.3143232" id="Fill-4" fill="#3DAE3B" sketch:type="MSShapeGroup" mask="url(#mask-2)"></path>
                        <path d="M56.6452441,36.1094297 L50.0832587,30.0835027 C50.0832587,30.0835027 51.488993,28.8474151 51.0216762,28.1518005 C50.5518368,27.4555553 49.5371098,28.3845129 48.6787857,28.3845129 C47.8198309,28.3845129 46.6474397,29.0788662 46.1788616,28.4608224 C45.7109141,27.8415173 45.3974777,27.9966589 44.9295302,28.3845129 C44.4603214,28.7698443 43.6013667,29.3878881 43.5225346,29.0012954 C43.4449638,28.6147027 42.0392295,28.7698443 41.9597667,28.3845129 C41.8828266,27.9966589 42.1950017,26.9163436 41.4924499,27.1477947 C40.7905287,27.3786151 39.7745404,28.1518005 39.6168762,28.5383932 C39.4617346,28.9249859 38.914955,30.0835027 38.3669141,30.0835027 C37.8213959,30.0835027 36.4156616,30.391894 36.1804266,29.9283611 C35.9464528,29.4648283 35.4778747,27.9197188 35.9464528,27.4555553 C36.4156616,26.9926531 38.7080995,27.4814122 38.6021492,26.9163436 C38.4961988,26.3487524 38.2262777,25.1057275 38.571247,24.9285129 C38.914955,24.7525597 39.8527419,22.7432867 40.4758309,22.5118356 C41.100812,22.2791232 42.7417813,23.1292487 42.9770163,22.5894064 C42.9770163,22.5894064 43.0539565,20.9667261 42.7417813,20.7346443 C42.4289755,20.5031932 42.1950017,19.8075786 41.6488528,19.8838881 C41.100812,19.9620896 40.8674689,20.5031932 41.2578455,20.7346443 C41.6488528,20.9667261 41.9597667,21.8937918 41.7264236,21.8937918 C41.4924499,21.8937918 39.3829025,22.0483027 39.304701,21.5078297 C39.2271302,20.9667261 39.539936,19.6530677 40.2412266,19.1895348 C40.9450397,18.726002 42.4289755,18.8023115 42.8981842,19.0350239 C43.367393,19.2671056 43.9135419,18.8023115 44.0699448,18.4169801 C44.2269784,18.0316487 41.8500324,16.7375407 41.1462193,16.7375407 C41.1462193,16.7375407 59.6578923,18.11931 62.8345112,37.044694 C62.8345112,37.044694 60.862447,30.5464049 59.5361755,30.1598122 C59.5361755,30.1598122 58.8317317,30.6246064 58.3625229,30.5464049 C57.8939448,30.4688341 55.551685,29.0012954 55.3959127,29.3878881 C55.2388791,29.7744808 56.4894718,31.0875086 57.8170047,31.2407582 C59.1439068,31.3965305 59.222739,31.5510414 59.3015711,32.2460254 C59.3791419,32.9410093 59.6131156,34.0225859 59.4573433,34.7182005 C59.3015711,35.4138151 58.3625229,37.5000283 56.6452441,36.1094297" id="Fill-5" fill="#3DAE3B" sketch:type="MSShapeGroup" mask="url(#mask-2)"></path>
                        <path d="M37.2746163,22.3573246 C37.2746163,22.3573246 36.6490047,22.7432867 36.3368295,23.283129 C36.0240236,23.8242327 36.0240236,24.2883962 36.0240236,24.2883962 C36.0240236,24.2883962 36.4207068,24.5192166 36.8205433,24.5217392 C37.2210105,24.5230005 38.289974,24.1345159 38.289974,23.5934122 C38.289974,23.0523086 37.2746163,22.3573246 37.2746163,22.3573246" id="Fill-6" fill="#3DAE3B" sketch:type="MSShapeGroup" mask="url(#mask-2)"></path>
                        <path d="M36.3368295,17.7226268 C36.3368295,17.7226268 34.4631477,19.9620896 33.5253609,20.1941713 C32.587574,20.4262531 31.0273287,21.1975465 30.6350601,21.5078297 C30.2446835,21.8168516 28.9171506,21.2751173 29.6979039,20.6583348 C30.4786572,20.0396604 32.587574,18.6484312 32.1196266,18.4932896 C31.6504178,18.34004 29.5421317,19.8075786 28.6825463,20.4262531 C27.8235915,21.0436662 27.1197784,21.9701013 26.7300324,22.5894064 C26.3390251,23.2074502 26.4172266,24.8288692 25.5582718,25.1378911 C24.6986864,25.4481743 20.9494309,26.9926531 19.7000995,28.0748604 C18.4501375,29.1551757 17.1043156,29.9542181 16.5569054,31.0357947 C16.0107565,32.1173713 16.8337638,29.3096867 17.316847,28.2728867 C17.316847,28.2728867 20.6385171,22.3573246 28.2139682,18.6484312 C28.2139682,18.6484312 33.9945696,17.1808925 36.3368295,17.7226268" id="Fill-7" fill="#3DAE3B" sketch:type="MSShapeGroup" mask="url(#mask-2)"></path>
                        <path d="M14.467539,44.9171845 C14.467539,44.9171845 13.6855244,40.7447582 14.5451098,40.3575348 C15.4028032,39.9722035 15.6626339,39.8908487 16.4200528,40.6671874 C17.1755798,41.4454181 18.2155331,42.7540312 18.6059098,43.4483845 C18.9962864,44.1439991 20.4026514,44.993494 20.4026514,45.533967 C20.4026514,46.0763319 20.0904762,47.3893597 20.4026514,48.0067728 C20.7154572,48.6254473 21.1840353,48.7030181 21.8865871,49.0114093 C22.5910309,49.3191699 23.9179331,49.7827027 24.6986864,50.4795786 C25.4794397,51.1751932 26.5729988,52.0246881 26.3390251,52.9517538 C26.1050514,53.8788195 25.6364733,55.2694181 25.7922455,55.8098911 C25.9486485,56.3509947 26.4960587,57.2774297 25.8717083,57.6640224 C25.2460966,58.0506151 24.7768879,57.973675 24.8550893,58.6680283 C24.9339214,59.3630122 25.715936,61.5242735 25.9511711,61.9108662 C25.9511711,61.9108662 16.2113054,57.7661889 14.467539,44.9171845" id="Fill-8" fill="#3DAE3B" sketch:type="MSShapeGroup" mask="url(#mask-2)"></path>
                        <path d="M15.5333492,36.3320516 C15.6897521,35.790948 16.0801287,33.0879524 15.61092,33.0879524 C14.6939448,36.4682735 14.7273696,36.4253889 14.3609579,38.9587378" id="Fill-9" fill="#3DAE3B" sketch:type="MSShapeGroup" mask="url(#mask-2)"></path>
                        <path d="M66.285466,50.6763436 C71.6952412,35.2662414 63.5875156,18.3886005 48.1774134,12.979456 L47.2074631,15.746148 C61.0894835,20.6179728 68.3937521,35.8224808 63.5194047,49.7051319 C58.6469492,63.5890443 43.4430718,70.8926823 29.5591594,66.0195962 L28.589209,68.7856575 C43.9993112,74.1941713 60.8769521,66.0870765 66.285466,50.6763436" id="Fill-10" fill="#B9B8B4" sketch:type="MSShapeGroup" mask="url(#mask-2)"></path>
                        <path d="M39.0404558,69.5083903 L39.0404558,80.1519874 C39.1205492,80.1526181 39.1993813,80.1576633 39.2788441,80.1576633 C40.0974368,80.1576633 40.9090923,80.1254998 41.7150718,80.0775699 L41.7150718,69.5083903 L39.0404558,69.5083903" id="Fill-11" fill="#DDDDD8" sketch:type="MSShapeGroup" mask="url(#mask-2)"></path>
                        <path d="M66.285466,50.6763436 C71.6927185,35.272548 63.5938222,18.4031056 48.1957025,12.9863932 L47.9213667,13.7690385 C62.7165784,18.9624983 70.5007769,35.1672283 65.3066864,49.9637013 C60.1132266,64.7595436 43.9091273,72.5443728 29.1120236,67.3502823 L28.6074981,68.7913334 C44.0119244,74.1878648 60.8788441,66.0807699 66.285466,50.6763436" id="Fill-12" fill="#C9C8C4" sketch:type="MSShapeGroup" mask="url(#mask-2)"></path>
                    </g>
                </g>
            </g>
        </g>
    </g>
</svg>